<svg width="25" height="24" viewBox="0 0 25 24" fill="" xmlns="http://www.w3.org/2000/svg">
<path d="M21.015 2.88002V0.960022H3.735V2.88002H0.375V23.52H2.295V4.80002H3.735V6.72002H21.015V4.80002H22.455V23.52H24.375V2.88002H21.015ZM20.56 13.92L17.428 8.58002C17.3036 8.34914 16.9912 8.16002 16.7339 8.16002H8.01564C7.75836 8.16002 7.44588 8.34914 7.32204 8.58002L4.19052 13.92C3.67596 13.92 3.255 14.352 3.255 14.88V19.68C3.255 20.208 3.67596 20.64 4.19052 20.64H5.175V22.08C5.175 22.872 5.75724 23.52 6.5286 23.52H6.9966C7.76796 23.52 8.535 22.872 8.535 22.08V20.64H16.215V22.08C16.215 22.872 16.9816 23.52 17.7534 23.52H18.2214C18.9928 23.52 19.575 22.872 19.575 22.08V20.64H20.56C21.074 20.64 21.495 20.208 21.495 19.68V14.88C21.495 14.352 21.074 13.92 20.56 13.92ZM5.82732 17.76C5.18172 17.76 4.65804 17.2229 4.65804 16.56C4.65804 15.8971 5.18172 15.36 5.82732 15.36C6.4734 15.36 6.9966 15.8971 6.9966 16.56C6.9966 17.2229 6.4734 17.76 5.82732 17.76ZM6.5286 13.92L8.65788 10.0291C8.77308 9.79298 9.07788 9.60002 9.33468 9.60002H15.4148C15.6721 9.60002 15.9769 9.79298 16.0916 10.0291L18.2214 13.92H6.5286ZM18.9227 17.76C18.2771 17.76 17.7534 17.2229 17.7534 16.56C17.7534 15.8971 18.2771 15.36 18.9227 15.36C19.5688 15.36 20.0924 15.8971 20.0924 16.56C20.0924 17.2229 19.5683 17.76 18.9227 17.76Z" fill="" stroke="" stroke-width="1"/>
</svg>
