<svg width="25" height="24" viewBox="0 0 25 24" fill="none" xmlns="http://www.w3.org/2000/svg">
  <path d="M16.125 3H8.125C7.85978 3 7.60543 3.10536 7.41789 3.29289C7.23036 3.48043 7.125 3.73478 7.125 4C7.125 4.26522 7.23036 4.51957 7.41789 4.70711C7.60543 4.89464 7.85978 5 8.125 5H16.125C16.3902 5 16.6446 4.89464 16.8321 4.70711C17.0196 4.51957 17.125 4.26522 17.125 4C17.125 3.73478 17.0196 3.48043 16.8321 3.29289C16.6446 3.10536 16.3902 3 16.125 3Z" fill="none" stroke="black"/>
  <path d="M19.125 6H5.125C4.85978 6 4.60543 6.10536 4.41789 6.29289C4.23036 6.48043 4.125 6.73478 4.125 7C4.125 7.26522 4.23036 7.51957 4.41789 7.70711C4.60543 7.89464 4.85978 8 5.125 8H19.125C19.3902 8 19.6446 7.89464 19.8321 7.70711C20.0196 7.51957 20.125 7.26522 20.125 7C20.125 6.73478 20.0196 6.48043 19.8321 6.29289C19.6446 6.10536 19.3902 6 19.125 6Z" fill="none" stroke="black"/>
  <path d="M3.24286 10.1179C3.47726 9.88347 3.7948 9.75125 4.12625 9.75H20.1237C20.4552 9.75125 20.7727 9.88347 21.0071 10.1179C21.2415 10.3522 21.3737 10.6697 21.375 11.0011V18.9989C21.3737 19.3303 21.2415 19.6478 21.0071 19.8821C20.7728 20.1165 20.4553 20.2487 20.1239 20.25H4.12613C3.79472 20.2487 3.47723 20.1165 3.24286 19.8821C3.00847 19.6477 2.87625 19.3302 2.875 18.9987V11.0013C2.87625 10.6698 3.00847 10.3523 3.24286 10.1179Z" stroke="black" stroke-width="1.5"/>
</svg>
