<svg width="15" height="15" viewBox="0 0 15 15" fill="none" xmlns="http://www.w3.org/2000/svg">
<path d="M7.5 1.24878C10.9525 1.24878 13.7513 4.04753 13.7513 7.50003C13.7513 10.9519 10.9525 13.75 7.5 13.75C4.0475 13.75 1.25 10.9519 1.25 7.50003C1.24938 4.04753 4.0475 1.24878 7.5 1.24878ZM7.5 2.18628C6.79738 2.17866 6.10023 2.31047 5.44889 2.57407C4.79755 2.83768 4.20496 3.22785 3.70541 3.72201C3.20587 4.21616 2.80929 4.80449 2.53864 5.45293C2.26798 6.10137 2.12862 6.79706 2.12862 7.49972C2.12862 8.20238 2.26798 8.89806 2.53864 9.5465C2.80929 10.1949 3.20587 10.7833 3.70541 11.2774C4.20496 11.7716 4.79755 12.1618 5.44889 12.4254C6.10023 12.689 6.79738 12.8208 7.5 12.8132C8.89923 12.798 10.236 12.2315 11.2201 11.2367C12.2042 10.2419 12.7561 8.89903 12.7561 7.49972C12.7561 6.10041 12.2042 4.75757 11.2201 3.76276C10.236 2.76794 8.89923 2.20145 7.5 2.18628ZM7.4975 6.56128C7.61088 6.56113 7.72047 6.60209 7.80597 6.67655C7.89147 6.75102 7.94708 6.85395 7.9625 6.96628L7.96688 7.03003L7.96938 10.4688C7.97059 10.5884 7.92604 10.7039 7.84483 10.7918C7.76363 10.8796 7.65192 10.9331 7.53258 10.9412C7.41324 10.9494 7.2953 10.9116 7.20291 10.8356C7.11052 10.7596 7.05068 10.6512 7.03562 10.5325L7.03188 10.4694L7.02938 7.03065C7.02938 6.90633 7.07876 6.78711 7.16667 6.6992C7.25458 6.61129 7.3738 6.5619 7.49813 6.5619M7.50125 4.37628C7.58486 4.37363 7.66816 4.38782 7.74619 4.41799C7.82421 4.44816 7.89538 4.4937 7.95546 4.55191C8.01554 4.61012 8.06332 4.67982 8.09594 4.75685C8.12857 4.83388 8.14538 4.91668 8.14538 5.00034C8.14538 5.084 8.12857 5.1668 8.09594 5.24383C8.06332 5.32087 8.01554 5.39056 7.95546 5.44877C7.89538 5.50698 7.82421 5.55253 7.74619 5.5827C7.66816 5.61287 7.58486 5.62705 7.50125 5.6244C7.33916 5.61927 7.18542 5.55128 7.07257 5.4348C6.95973 5.31833 6.89663 5.16252 6.89663 5.00034C6.89663 4.83817 6.95973 4.68236 7.07257 4.56588C7.18542 4.44941 7.33916 4.38141 7.50125 4.37628Z" fill="#F36A21"/>
</svg>
