<svg width="17" height="20" viewBox="0 0 17 20" fill="" xmlns="http://www.w3.org/2000/svg">
<path d="M13.8083 13.9665L14.5154 14.6736L14.5155 14.6736L13.8083 13.9665ZM10.0379 17.7369L10.7446 18.4444L10.745 18.4441L10.0379 17.7369ZM7.52574 17.7369L6.81872 18.4441L6.81899 18.4444L7.52574 17.7369ZM3.75442 13.9665L3.04729 14.6736L3.04739 14.6737L3.75442 13.9665ZM5.11549 8.9396C5.11549 9.91185 5.50172 10.8443 6.1892 11.5318L7.60342 10.1176C7.291 9.80514 7.11549 9.38142 7.11549 8.9396H5.11549ZM6.1892 11.5318C6.87669 12.2193 7.80912 12.6055 8.78137 12.6055V10.6055C8.33955 10.6055 7.91583 10.43 7.60342 10.1176L6.1892 11.5318ZM8.78137 12.6055C9.75362 12.6055 10.686 12.2193 11.3735 11.5318L9.95932 10.1176C9.64691 10.43 9.22319 10.6055 8.78137 10.6055V12.6055ZM11.3735 11.5318C12.061 10.8443 12.4472 9.91185 12.4472 8.9396H10.4472C10.4472 9.38142 10.2717 9.80514 9.95932 10.1176L11.3735 11.5318ZM12.4472 8.9396C12.4472 7.96735 12.061 7.03492 11.3735 6.34743L9.95932 7.76165C10.2717 8.07406 10.4472 8.49778 10.4472 8.9396H12.4472ZM11.3735 6.34743C10.686 5.65995 9.75362 5.27372 8.78137 5.27372V7.27372C9.22319 7.27372 9.64691 7.44923 9.95932 7.76165L11.3735 6.34743ZM8.78137 5.27372C7.80912 5.27372 6.87669 5.65995 6.1892 6.34743L7.60342 7.76165C7.91583 7.44923 8.33955 7.27372 8.78137 7.27372V5.27372ZM6.1892 6.34743C5.50172 7.03492 5.11549 7.96735 5.11549 8.9396H7.11549C7.11549 8.49778 7.291 8.07406 7.60342 7.76165L6.1892 6.34743ZM13.1012 13.2594L9.33078 17.0298L10.745 18.4441L14.5154 14.6736L13.1012 13.2594ZM9.33114 17.0295C9.1854 17.1751 8.98782 17.2569 8.78182 17.2569V19.2569C9.5179 19.2569 10.2239 18.9646 10.7446 18.4444L9.33114 17.0295ZM8.78182 17.2569C8.57581 17.2569 8.37823 17.1751 8.23249 17.0295L6.81899 18.4444C7.33975 18.9646 8.04573 19.2569 8.78182 19.2569V17.2569ZM8.23277 17.0298L4.46144 13.2593L3.04739 14.6737L6.81872 18.4441L8.23277 17.0298ZM4.46154 13.2594C3.60721 12.4051 3.02542 11.3165 2.78973 10.1315L0.828148 10.5217C1.141 12.0946 1.91327 13.5395 3.04729 14.6736L4.46154 13.2594ZM2.78973 10.1315C2.55403 8.94649 2.67503 7.71818 3.13742 6.60193L1.28967 5.83654C0.675904 7.31824 0.515294 8.94867 0.828148 10.5217L2.78973 10.1315ZM3.13742 6.60193C3.5998 5.48567 4.38281 4.53159 5.38742 3.86034L4.27629 2.1974C2.94278 3.08841 1.90343 4.35483 1.28967 5.83654L3.13742 6.60193ZM5.38742 3.86034C6.39204 3.18909 7.57314 2.83081 8.78137 2.83081V0.830811C7.17758 0.830811 5.6098 1.30638 4.27629 2.1974L5.38742 3.86034ZM8.78137 2.83081C9.98961 2.83081 11.1707 3.18909 12.1753 3.86034L13.2865 2.1974C11.9529 1.30638 10.3852 0.830811 8.78137 0.830811V2.83081ZM12.1753 3.86034C13.1799 4.53159 13.9629 5.48567 14.4253 6.60193L16.2731 5.83654C15.6593 4.35483 14.62 3.08841 13.2865 2.1974L12.1753 3.86034ZM14.4253 6.60193C14.8877 7.71818 15.0087 8.94648 14.773 10.1315L16.7346 10.5217C17.0474 8.94867 16.8868 7.31824 16.2731 5.83654L14.4253 6.60193ZM14.773 10.1315C14.5373 11.3165 13.9555 12.4051 13.1012 13.2594L14.5155 14.6736C15.6495 13.5395 16.4217 12.0946 16.7346 10.5217L14.773 10.1315Z" fill=""/>
</svg>
