<svg width="33" height="32" viewBox="0 0 33 32" fill="none" xmlns="http://www.w3.org/2000/svg">
<rect x="0.693359" width="32.3066" height="32" rx="16" fill="#34B566"/>
<path d="M22.5871 8.56352C23.1898 9.03611 23.6052 9.79947 23.775 10.5988C23.7956 10.6053 23.8157 10.6134 23.835 10.6228L25.7227 11.496C25.8282 11.5445 25.9176 11.6221 25.9804 11.7198C26.0432 11.8174 26.0768 11.931 26.0771 12.0471V23.4624C26.0764 23.5572 26.0538 23.6506 26.011 23.7352C25.9682 23.8198 25.9063 23.8933 25.8303 23.95C25.7543 24.0067 25.6662 24.045 25.5729 24.062C25.4796 24.0789 25.3836 24.074 25.2925 24.0476L20.0598 22.5707L13.8385 24.2857C13.7262 24.3166 13.6076 24.3153 13.496 24.2821L8.05373 22.6621C7.92794 22.6252 7.81743 22.5486 7.7386 22.4439C7.65978 22.3391 7.61686 22.2117 7.61621 22.0806V10.4604C7.61621 10.0542 8.01127 9.76255 8.40541 9.87701L13.6686 11.4102L16.3436 10.5914C16.3804 10.5806 16.4181 10.5729 16.4562 10.5684C16.5596 9.96285 16.8485 9.38133 17.3331 8.81458C17.9082 8.14076 18.9171 7.7457 19.9001 7.69862C20.9201 7.6497 21.6991 7.86754 22.5862 8.56259M8.84663 11.2754V21.6274L13.3419 22.9649V12.5834L8.84663 11.2754ZM16.4239 11.8422L14.5723 12.408V22.819L19.2475 21.5323V18.4909C19.2475 18.1549 19.5235 17.8826 19.8632 17.8826C20.2029 17.8826 20.4779 18.1549 20.4779 18.4918V21.4243L24.8467 22.6566V12.4338L23.8129 11.9539C23.7953 12.0554 23.7732 12.1551 23.7455 12.252C23.5448 12.9598 23.2081 13.6216 22.7542 14.2006L20.4678 17.0555C20.4076 17.1306 20.3307 17.1906 20.2432 17.2307C20.1558 17.2708 20.0602 17.29 19.964 17.2867C19.8678 17.2834 19.7738 17.2577 19.6893 17.2116C19.6048 17.1655 19.5322 17.1004 19.4773 17.0214L17.3405 13.9264C16.9879 13.4335 16.7405 12.9941 16.6011 12.6009C16.5136 12.3555 16.4542 12.101 16.4239 11.8422ZM19.9592 8.9152C19.289 8.9475 18.6004 9.21703 18.2728 9.60009C17.8786 10.0616 17.6848 10.4936 17.646 10.9311C17.5999 11.4582 17.6313 11.8302 17.7623 12.1985C17.8592 12.4708 18.0522 12.816 18.3503 13.2323L20.0219 15.6525L21.785 13.451C22.1406 12.9965 22.4043 12.477 22.5612 11.9216C22.7828 11.1462 22.4486 10.0072 21.8228 9.51794C21.1813 9.01488 20.6967 8.8792 19.9601 8.9152M20.0875 9.55856C21.1065 9.55856 21.9336 10.3755 21.9336 11.3834C21.9322 11.6245 21.8834 11.8629 21.7899 12.0851C21.6964 12.3073 21.56 12.5089 21.3886 12.6783C21.2172 12.8478 21.014 12.9818 20.7908 13.0728C20.5675 13.1637 20.3285 13.2097 20.0875 13.2083C19.0684 13.2083 18.2414 12.3914 18.2414 11.3834C18.2414 10.3755 19.0684 9.55856 20.0875 9.55856ZM20.0875 10.7751C20.0071 10.7746 19.9274 10.79 19.853 10.8203C19.7786 10.8506 19.7108 10.8953 19.6537 10.9518C19.5965 11.0082 19.551 11.0754 19.5198 11.1495C19.4886 11.2236 19.4723 11.3031 19.4718 11.3834C19.4718 11.7194 19.7478 11.9917 20.0875 11.9917C20.1678 11.9921 20.2475 11.9766 20.3219 11.9462C20.3963 11.9158 20.4639 11.871 20.521 11.8144C20.5781 11.7579 20.6235 11.6906 20.6546 11.6165C20.6857 11.5424 20.7019 11.4629 20.7022 11.3825C20.701 11.2205 20.6356 11.0656 20.5204 10.9518C20.4051 10.8379 20.2495 10.7744 20.0875 10.7751Z" fill="white"/>
</svg>
