<svg width="21" height="21" viewBox="0 0 21 21" fill="none" xmlns="http://www.w3.org/2000/svg">
<path d="M10.6724 6.42981V10.4298L12.6724 12.4298M1.72241 9.42976C1.9465 7.22981 2.97268 5.18937 4.60515 3.69772C6.23761 2.20607 8.36211 1.36764 10.5733 1.34238C12.7845 1.31713 14.9276 2.10682 16.5937 3.56079C18.2598 5.01476 19.3323 7.03123 19.6066 9.22548C19.8809 11.4197 19.3377 13.6382 18.0808 15.4575C16.8238 17.2769 14.9411 18.5698 12.7917 19.0896C10.6423 19.6094 8.37682 19.3197 6.42741 18.2758C4.47799 17.2319 2.98113 15.5068 2.22241 13.4298M1.72241 18.4298V13.4298H6.72241" stroke="black" stroke-width="2" stroke-linecap="round" stroke-linejoin="round"/>
</svg>
