<svg width="25" height="24" viewBox="0 0 25 24" fill="none" xmlns="http://www.w3.org/2000/svg">
<path d="M21.746 15.5559C20.9322 14.1562 20.5 12.1472 20.5 9.75C20.5 7.66142 19.6703 5.65838 18.1935 4.18153C16.7166 2.70469 14.7136 1.875 12.625 1.875C10.5364 1.875 8.53341 2.70469 7.05656 4.18153C5.57971 5.65838 4.75003 7.66142 4.75003 9.75C4.75003 12.1481 4.31971 14.1562 3.50596 15.5559C3.33991 15.8414 3.2519 16.1656 3.25074 16.4958C3.24959 16.8261 3.33535 17.1509 3.4994 17.4375C3.66242 17.7243 3.89902 17.9624 4.1848 18.1272C4.47057 18.292 4.79515 18.3775 5.12503 18.375H8.5169C8.60993 19.4003 9.08297 20.3537 9.84311 21.048C10.6033 21.7423 11.5955 22.1273 12.625 22.1273C13.6545 22.1273 14.6468 21.7423 15.4069 21.048C16.1671 20.3537 16.6401 19.4003 16.7332 18.375H20.125C20.4544 18.377 20.7784 18.2913 21.0637 18.1265C21.3489 17.9617 21.5851 17.7239 21.7478 17.4375C21.9126 17.1513 21.9992 16.8267 21.9988 16.4965C21.9985 16.1662 21.9113 15.8418 21.746 15.5559ZM12.625 19.875C12.1928 19.8751 11.7738 19.7258 11.4389 19.4525C11.1041 19.1791 10.874 18.7985 10.7875 18.375H14.4625C14.3761 18.7985 14.146 19.1791 13.8111 19.4525C13.4763 19.7258 13.0573 19.8751 12.625 19.875ZM5.7494 16.125C6.57909 14.4375 7.00003 12.2944 7.00003 9.75C7.00003 8.25816 7.59266 6.82742 8.64755 5.77252C9.70244 4.71763 11.1332 4.125 12.625 4.125C14.1168 4.125 15.5476 4.71763 16.6025 5.77252C17.6574 6.82742 18.25 8.25816 18.25 9.75C18.25 12.2934 18.67 14.4375 19.4997 16.125H5.7494Z" fill="none" stroke="black" stroke-width="1"/>
</svg>
