<svg width="25" height="24" viewBox="0 0 25 24" fill="none" xmlns="http://www.w3.org/2000/svg">
<g clip-path="url(#clip0_76_428)">
<path d="M1.875 20.25C1.875 18.7913 2.45446 17.3924 3.48591 16.3609C4.51736 15.3295 5.91631 14.75 7.375 14.75H18.375C19.8337 14.75 21.2326 15.3295 22.2641 16.3609C23.2955 17.3924 23.875 18.7913 23.875 20.25C23.875 20.9793 23.5853 21.6788 23.0695 22.1945C22.5538 22.7103 21.8543 23 21.125 23H4.625C3.89565 23 3.19618 22.7103 2.68046 22.1945C2.16473 21.6788 1.875 20.9793 1.875 20.25Z" stroke="#808285" stroke-width="1.5" stroke-linejoin="round"/>
<path d="M12.875 9.25C15.1532 9.25 17 7.40317 17 5.125C17 2.84683 15.1532 1 12.875 1C10.5968 1 8.75 2.84683 8.75 5.125C8.75 7.40317 10.5968 9.25 12.875 9.25Z" stroke="#808285" stroke-width="1.5"/>
</g>
<defs>
<clipPath id="clip0_76_428">
<rect width="24" height="24" transform="translate(0.875)"/>
</clipPath>
</defs>
</svg>
